PathFileType	4	(X/Y/Z)	/home/nbianco/projects/addbio/data/OpenCap2022/Processed/subject8//results/MarkerData/DJ2.trc
DataRate	CameraRate	NumFrames	NumMarkers	Units	OrigDataRate	OrigDataStartFrame	OrigNumFrames
100	100	8	51	m	100	48	128
Frame#	Time	C7			L.ASIS			L.PSIS			L_5meta			L_HJC			L_HJC_reg			L_Shoulder			L_Sternum			L_ankle			L_calc			L_elbow_lat			L_elbow_med			L_forearm			L_humerus			L_knee			L_sh2			L_sh3			L_shank_antsup			L_thigh1			L_thigh2			L_thigh3			L_thigh4			L_toe			L_wrist_radius			L_wrist_ulna			R_HJC			R_HJC_reg			R_Shoulder			R_Sternum			R_elbow_lat			R_elbow_med			R_forearm			R_humerus			R_wrist_radius			R_wrist_ulna			r.ASIS			r.PSIS			r_5meta			r_ankle			r_calc			r_knee			r_sh2			r_sh3			r_sh4			r_shank_antsup			r_thigh1			r_thigh2			r_thigh3			r_thigh4			r_thigh5			r_toe		
		X1	Y1	Z1	X2	Y2	Z2	X3	Y3	Z3	X4	Y4	Z4	X5	Y5	Z5	X6	Y6	Z6	X7	Y7	Z7	X8	Y8	Z8	X9	Y9	Z9	X10	Y10	Z10	X11	Y11	Z11	X12	Y12	Z12	X13	Y13	Z13	X14	Y14	Z14	X15	Y15	Z15	X16	Y16	Z16	X17	Y17	Z17	X18	Y18	Z18	X19	Y19	Z19	X20	Y20	Z20	X21	Y21	Z21	X22	Y22	Z22	X23	Y23	Z23	X24	Y24	Z24	X25	Y25	Z25	X26	Y26	Z26	X27	Y27	Z27	X28	Y28	Z28	X29	Y29	Z29	X30	Y30	Z30	X31	Y31	Z31	X32	Y32	Z32	X33	Y33	Z33	X34	Y34	Z34	X35	Y35	Z35	X36	Y36	Z36	X37	Y37	Z37	X38	Y38	Z38	X39	Y39	Z39	X40	Y40	Z40	X41	Y41	Z41	X42	Y42	Z42	X43	Y43	Z43	X44	Y44	Z44	X45	Y45	Z45	X46	Y46	Z46	X47	Y47	Z47	X48	Y48	Z48	X49	Y49	Z49	X50	Y50	Z50	X51	Y51	Z51

49	1.91	-0.0296731	1.04711	-0.606721	-0.230956	0.674871	-0.711878	-0.399727	0.799117	-0.66244	-0.159938	0.0430829	-0.813416	-0.341871	0.63844	-0.714369	-0.326195	0.650534	-0.674596	0.0217532	0.969428	-0.740697	0.0421361	0.924298	-0.599168	-0.245838	0.0985245	-0.781659	-0.318943	0.0623269	-0.742282	-0.0753491	0.690931	-0.884017	-0.127393	0.679541	-0.843264	-0.026637	0.592451	-0.874297	0.00151085	0.870977	-0.812591	-0.0459727	0.404117	-0.751827	-0.0857363	0.365343	-0.787303	-0.151905	0.263318	-0.807608	-0.0325875	0.308205	-0.73964	-0.220038	0.611836	-0.797824	-0.115742	0.526366	-0.772526	-0.296764	0.52846	-0.797703	-0.19279	0.442508	-0.756326	-0.106969	0.0545513	-0.760051	-0.00252643	0.471581	-0.849877	-0.0346697	0.460571	-0.873037	-0.357758	0.640339	-0.50748	-0.336899	0.653157	-0.532936	0.00272756	0.981261	-0.458488	0.0464576	0.931827	-0.571495	-0.166642	0.72491	-0.32589	-0.208668	0.723881	-0.378576	-0.117367	0.642127	-0.322165	-0.0347696	0.872058	-0.399534	-0.0906408	0.50533	-0.332644	-0.123651	0.495847	-0.315204	-0.246279	0.67905	-0.497179	-0.405898	0.800627	-0.580781	-0.185252	0.0454061	-0.359606	-0.273735	0.0986972	-0.405218	-0.335824	0.0684628	-0.451037	-0.083252	0.414839	-0.41218	-0.118606	0.251446	-0.395756	-0.104661	0.390919	-0.380825	-0.183847	0.301055	-0.375516	-0.0489439	0.34079	-0.405569	-0.245208	0.597509	-0.39995	-0.151985	0.533879	-0.39847	-0.213446	0.443926	-0.430556	-0.310368	0.510018	-0.424032	-0.17363	0.467027	-0.401283	-0.135255	0.0553494	-0.408218
50	1.92	-0.0347857	1.05822	-0.607728	-0.228856	0.680125	-0.710288	-0.400066	0.801431	-0.662055	-0.15991	0.0431046	-0.813391	-0.339073	0.64169	-0.713877	-0.323612	0.654758	-0.672875	0.0185947	0.981679	-0.740174	0.041572	0.938971	-0.602711	-0.245617	0.0989189	-0.781526	-0.318733	0.0628298	-0.74197	-0.0503552	0.693009	-0.878158	-0.100723	0.676985	-0.837166	0.0110254	0.601941	-0.862506	0.00673722	0.882317	-0.811385	-0.045159	0.403979	-0.751925	-0.084793	0.365362	-0.787206	-0.151203	0.263579	-0.807619	-0.0319061	0.308151	-0.739981	-0.216785	0.613549	-0.796984	-0.113561	0.527049	-0.772714	-0.294324	0.530977	-0.797278	-0.190891	0.443808	-0.755348	-0.106817	0.0544019	-0.760128	0.0508662	0.487203	-0.830342	0.0211056	0.470526	-0.853222	-0.354894	0.643406	-0.506981	-0.333491	0.657187	-0.532576	0.000105314	0.99364	-0.45946	0.0441776	0.944898	-0.57207	-0.14574	0.725025	-0.323431	-0.187097	0.718525	-0.376711	-0.0849611	0.649218	-0.322115	-0.0296211	0.883594	-0.399262	-0.03897	0.51868	-0.336715	-0.069757	0.503846	-0.319025	-0.243868	0.683908	-0.497716	-0.405806	0.802842	-0.580486	-0.185276	0.0454865	-0.359724	-0.273737	0.0988433	-0.405571	-0.335812	0.0682338	-0.451302	-0.0822743	0.413815	-0.413219	-0.117739	0.250854	-0.396418	-0.102317	0.391533	-0.378827	-0.182819	0.300453	-0.375877	-0.0481383	0.340165	-0.406678	-0.241538	0.599114	-0.399531	-0.149549	0.53363	-0.398633	-0.21183	0.444784	-0.43198	-0.308074	0.512533	-0.424424	-0.172073	0.467547	-0.401625	-0.135265	0.0552865	-0.408337
51	1.93	-0.0403823	1.0691	-0.608432	-0.226977	0.685547	-0.708185	-0.400684	0.803425	-0.661715	-0.159857	0.0431276	-0.813338	-0.336264	0.644798	-0.713049	-0.32109	0.659019	-0.670562	0.0153408	0.99454	-0.739886	0.0415594	0.955042	-0.608502	-0.245429	0.0992746	-0.78126	-0.318576	0.0634236	-0.741691	-0.0233357	0.698698	-0.872165	-0.0717391	0.678133	-0.830987	0.0499668	0.61736	-0.850087	0.0124392	0.895144	-0.810119	-0.0444199	0.403683	-0.751319	-0.0838453	0.365464	-0.786964	-0.150645	0.263823	-0.807522	-0.0314952	0.308241	-0.740187	-0.213704	0.615363	-0.796587	-0.111074	0.528002	-0.77198	-0.291914	0.533427	-0.796629	-0.188884	0.445288	-0.754547	-0.106695	0.054276	-0.760136	0.104857	0.51163	-0.809476	0.078339	0.489739	-0.832228	-0.352058	0.646693	-0.506153	-0.330105	0.661812	-0.531879	-0.00269265	1.00668	-0.460301	0.0415689	0.958398	-0.57234	-0.122713	0.728038	-0.319921	-0.162839	0.715902	-0.373826	-0.0507296	0.661498	-0.321779	-0.0242928	0.89666	-0.398498	0.0140845	0.540452	-0.341239	-0.0131335	0.520618	-0.323017	-0.241507	0.689103	-0.498101	-0.40598	0.805069	-0.580225	-0.185237	0.045605	-0.359796	-0.273696	0.0990734	-0.405873	-0.335779	0.0681653	-0.451512	-0.0810656	0.412337	-0.414858	-0.116908	0.250445	-0.39712	-0.100545	0.391422	-0.379245	-0.181807	0.300176	-0.376356	-0.0472857	0.339942	-0.407569	-0.238021	0.601265	-0.398468	-0.147049	0.534072	-0.398851	-0.210119	0.446181	-0.432957	-0.305695	0.515079	-0.424844	-0.170371	0.46855	-0.402141	-0.135271	0.0551839	-0.40846
52	1.94	-0.0462081	1.08013	-0.608982	-0.225156	0.691594	-0.706887	-0.401347	0.80523	-0.661455	-0.159796	0.0431581	-0.813282	-0.33334	0.648208	-0.71226	-0.318709	0.663163	-0.668824	0.0120863	1.00804	-0.739544	0.0391764	0.969345	-0.610521	-0.245228	0.0996208	-0.780952	-0.318397	0.0640727	-0.741524	0.00537627	0.708578	-0.866085	-0.0408656	0.683607	-0.824799	0.0890529	0.639237	-0.83743	0.0189056	0.909464	-0.808222	-0.0435836	0.403637	-0.750536	-0.0830169	0.365844	-0.787087	-0.150153	0.264098	-0.807442	-0.0310104	0.308499	-0.740101	-0.210725	0.617216	-0.796385	-0.108564	0.529029	-0.771239	-0.289619	0.535914	-0.795777	-0.18713	0.447026	-0.754123	-0.106575	0.0541612	-0.760085	0.157504	0.545354	-0.788321	0.135086	0.518774	-0.810621	-0.349102	0.650289	-0.505363	-0.327178	0.667019	-0.530858	-0.00597407	1.02012	-0.461443	0.0384387	0.972512	-0.572561	-0.0973404	0.734531	-0.31552	-0.136106	0.71665	-0.369511	-0.0154037	0.67946	-0.321374	-0.0185556	0.911374	-0.397538	0.0676695	0.571174	-0.346693	0.0442918	0.547107	-0.327064	-0.239359	0.694917	-0.497878	-0.406354	0.807511	-0.579909	-0.185173	0.0457209	-0.359899	-0.273527	0.0993762	-0.406241	-0.335662	0.0682977	-0.451745	-0.0799034	0.411565	-0.416415	-0.116058	0.250179	-0.397824	-0.0995244	0.390885	-0.381182	-0.180719	0.300057	-0.376877	-0.0464616	0.339724	-0.408633	-0.234712	0.603572	-0.397525	-0.144438	0.534945	-0.399341	-0.208514	0.447903	-0.433614	-0.303271	0.517777	-0.425205	-0.168503	0.469553	-0.403015	-0.135177	0.0550504	-0.408604
53	1.95	-0.0521849	1.09163	-0.609496	-0.223253	0.698447	-0.707001	-0.401882	0.807205	-0.661158	-0.159757	0.0432283	-0.813216	-0.330291	0.652288	-0.711932	-0.316437	0.667381	-0.668215	0.00894748	1.02213	-0.738843	0.0347674	0.981818	-0.608078	-0.245001	0.0999963	-0.780683	-0.318122	0.0646757	-0.741312	0.0352541	0.723134	-0.859928	-0.00855052	0.6939	-0.818738	0.127159	0.667704	-0.824905	0.0261328	0.925502	-0.805489	-0.0427975	0.404092	-0.750233	-0.0823823	0.366411	-0.787335	-0.14967	0.264535	-0.807477	-0.0304364	0.308891	-0.739884	-0.207937	0.619151	-0.796236	-0.106372	0.530131	-0.77104	-0.287552	0.538626	-0.794858	-0.185716	0.448883	-0.753614	-0.106442	0.0540471	-0.760023	0.206841	0.588314	-0.76798	0.189339	0.557592	-0.788969	-0.345828	0.654094	-0.505016	-0.324543	0.672528	-0.529862	-0.0101092	1.0337	-0.463333	0.0352661	0.987158	-0.572914	-0.0696893	0.745223	-0.31045	-0.107058	0.721615	-0.363565	0.0200585	0.703457	-0.320901	-0.0123602	0.927831	-0.396823	0.120193	0.61105	-0.353015	0.100398	0.583631	-0.331227	-0.237265	0.701184	-0.497358	-0.406666	0.810238	-0.579544	-0.185129	0.0458103	-0.360125	-0.273217	0.0997332	-0.406796	-0.335441	0.0685488	-0.452065	-0.0790168	0.411704	-0.417474	-0.115193	0.250012	-0.398595	-0.0986312	0.390548	-0.382749	-0.179576	0.29993	-0.377471	-0.0457806	0.339268	-0.410441	-0.231412	0.605568	-0.397596	-0.141652	0.5359	-0.400173	-0.207104	0.449801	-0.43428	-0.300948	0.520772	-0.425547	-0.166685	0.470356	-0.404073	-0.134957	0.0548547	-0.408798
54	1.96	-0.0582525	1.10355	-0.609939	-0.221291	0.70575	-0.707674	-0.4021	0.809778	-0.660742	-0.159731	0.0433246	-0.813096	-0.327233	0.657016	-0.711847	-0.314169	0.672024	-0.668058	0.00606316	1.03679	-0.737692	0.0308852	0.994642	-0.604839	-0.24477	0.100409	-0.780405	-0.317797	0.0652453	-0.740894	0.0657555	0.742763	-0.853792	0.0247224	0.709218	-0.812774	0.163324	0.702662	-0.812802	0.0337587	0.943583	-0.802104	-0.0422494	0.404884	-0.750283	-0.0819561	0.36694	-0.787379	-0.14922	0.265129	-0.807585	-0.0299622	0.309431	-0.739702	-0.205442	0.621266	-0.796038	-0.104583	0.531392	-0.771153	-0.285801	0.541665	-0.793784	-0.184652	0.450905	-0.752936	-0.106294	0.0539332	-0.759967	0.251332	0.639865	-0.748975	0.239427	0.605698	-0.767951	-0.342373	0.658301	-0.504897	-0.321886	0.678297	-0.528986	-0.0147152	1.04778	-0.46562	0.0325667	1.00182	-0.573492	-0.0402131	0.760771	-0.304965	-0.0757978	0.731372	-0.356577	0.0546377	0.733579	-0.320346	-0.00578227	0.946116	-0.396615	0.167957	0.65975	-0.359211	0.153136	0.629776	-0.33574	-0.235049	0.707729	-0.49688	-0.406627	0.813455	-0.579175	-0.185097	0.0458992	-0.360458	-0.272849	0.100059	-0.407558	-0.335164	0.0688164	-0.452501	-0.0783926	0.412131	-0.418274	-0.114456	0.249968	-0.399475	-0.0976987	0.390536	-0.383755	-0.178657	0.299863	-0.378294	-0.0452689	0.338878	-0.412561	-0.228034	0.607256	-0.39883	-0.139009	0.536897	-0.400961	-0.206036	0.451822	-0.435132	-0.298874	0.524054	-0.426066	-0.165227	0.47136	-0.404955	-0.134682	0.0546213	-0.409066
55	1.97	-0.0641774	1.11573	-0.610313	-0.219348	0.713087	-0.707969	-0.401746	0.813297	-0.660288	-0.15969	0.0433911	-0.812909	-0.324295	0.662259	-0.711562	-0.31179	0.677284	-0.667666	0.00356307	1.05221	-0.736181	0.0285171	1.00894	-0.603359	-0.244552	0.100864	-0.780058	-0.317502	0.0658626	-0.740345	0.0962688	0.767785	-0.84795	0.0583756	0.729735	-0.807024	0.196684	0.743903	-0.801368	0.041384	0.963907	-0.798352	-0.0420185	0.405761	-0.75022	-0.0817405	0.367415	-0.787279	-0.148858	0.265758	-0.807656	-0.0296725	0.310196	-0.739637	-0.203215	0.623736	-0.795812	-0.103143	0.532876	-0.771257	-0.284406	0.545111	-0.792388	-0.183995	0.453298	-0.752242	-0.106134	0.0538208	-0.7599	0.289801	0.698926	-0.731394	0.284056	0.662309	-0.748345	-0.338993	0.66331	-0.504578	-0.319164	0.684495	-0.528163	-0.0188094	1.06305	-0.467594	0.0304048	1.01626	-0.574287	-0.00973194	0.781667	-0.299323	-0.0429144	0.746463	-0.349367	0.0873136	0.769666	-0.319801	0.00116635	0.966363	-0.396966	0.207852	0.716218	-0.36464	0.200632	0.684536	-0.340858	-0.232654	0.714608	-0.496447	-0.406053	0.81751	-0.57879	-0.185038	0.0460184	-0.360781	-0.272506	0.100307	-0.408349	-0.334902	0.0690683	-0.453007	-0.0781008	0.412516	-0.419219	-0.113995	0.250172	-0.400292	-0.0972304	0.390745	-0.384734	-0.178276	0.300036	-0.379266	-0.0449297	0.339137	-0.413857	-0.22475	0.609092	-0.400354	-0.136913	0.538111	-0.401271	-0.20542	0.454056	-0.436087	-0.297142	0.527616	-0.426839	-0.164297	0.472865	-0.405612	-0.134455	0.0544086	-0.409381
56	1.98	-0.0697288	1.12814	-0.6107	-0.217328	0.720495	-0.707865	-0.400628	0.817992	-0.659841	-0.159636	0.0434074	-0.812728	-0.321421	0.668117	-0.710931	-0.309197	0.683222	-0.667083	0.00137296	1.06877	-0.734328	0.0266695	1.02426	-0.603329	-0.244341	0.101382	-0.77975	-0.317233	0.0665485	-0.7399	0.126002	0.798433	-0.842842	0.091689	0.755723	-0.802054	0.226331	0.790939	-0.790896	0.0487575	0.986485	-0.794399	-0.0421592	0.406741	-0.750001	-0.0817652	0.368061	-0.787269	-0.148642	0.266366	-0.807664	-0.0295768	0.311233	-0.739742	-0.201171	0.626833	-0.795794	-0.102004	0.53469	-0.77137	-0.283355	0.549169	-0.790721	-0.1838	0.456175	-0.751433	-0.10597	0.053727	-0.759841	0.321155	0.764131	-0.715371	0.32205	0.726286	-0.730607	-0.335685	0.669384	-0.503918	-0.316428	0.691211	-0.5273	-0.0218979	1.07959	-0.469262	0.0283121	1.03087	-0.57492	0.0207368	0.808181	-0.29376	-0.00961111	0.767579	-0.342326	0.117129	0.811341	-0.319416	0.00850063	0.988722	-0.397941	0.240069	0.778803	-0.369995	0.241328	0.746571	-0.346716	-0.230041	0.722048	-0.495832	-0.404846	0.822654	-0.578313	-0.184946	0.0461423	-0.36101	-0.27221	0.100562	-0.408918	-0.334687	0.0693018	-0.453435	-0.0783295	0.413057	-0.420327	-0.113843	0.25073	-0.400854	-0.09755	0.391256	-0.385585	-0.178363	0.300402	-0.380041	-0.0449246	0.340114	-0.414217	-0.221811	0.611524	-0.400963	-0.135432	0.539641	-0.401176	-0.205251	0.456725	-0.436996	-0.295739	0.531675	-0.427721	-0.163872	0.474823	-0.406254	-0.134301	0.0542337	-0.409647
